<?xml version="1.0" encoding="UTF-8" standalone="no"?>
<!DOCTYPE svg PUBLIC "-//W3C//DTD SVG 1.1//EN"
 "http://www.w3.org/Graphics/SVG/1.1/DTD/svg11.dtd">
<!-- Generated by graphviz version 2.43.0 (0)
 -->
<!-- Title: StarSchema Pages: 1 -->
<svg width="1024pt" height="550pt"
 viewBox="0.00 0.00 1024.00 550.00" xmlns="http://www.w3.org/2000/svg" xmlns:xlink="http://www.w3.org/1999/xlink">
<g id="graph0" class="graph" transform="scale(1 1) rotate(0) translate(4 546)">
<title>StarSchema</title>
<polygon fill="white" stroke="transparent" points="-4,4 -4,-546 1020,-546 1020,4 -4,4"/>
<text text-anchor="middle" x="508" y="-523.6" font-family="Helvetica,sans-Serif" font-size="18.00">Analytics Star Schema (Suite Runs)</text>
<text text-anchor="middle" x="508" y="-503.6" font-family="Helvetica,sans-Serif" font-size="18.00">Purpose: A/B testing + dashboards over deterministic suite artifacts</text>
<!-- dim_suite_run -->
<g id="node1" class="node">
<title>dim_suite_run</title>
<polygon fill="#d9e1f2" stroke="transparent" points="0,-268.5 0,-297.5 226,-297.5 226,-268.5 0,-268.5"/>
<polygon fill="none" stroke="black" points="0,-268.5 0,-297.5 226,-297.5 226,-268.5 0,-268.5"/>
<text text-anchor="start" x="73.5" y="-281.5" font-family="Helvetica,sans-Serif" font-weight="bold" font-size="10.00">dim_suite_run</text>
<polygon fill="none" stroke="black" points="0,-210.5 0,-268.5 226,-268.5 226,-210.5 0,-210.5"/>
<text text-anchor="start" x="9" y="-252.5" font-family="Helvetica,sans-Serif" font-weight="bold" font-size="10.00">PK:</text>
<text text-anchor="start" x="28" y="-252.5" font-family="Helvetica,sans-Serif" font-size="10.00"> suite_run_id</text>
<text text-anchor="start" x="9" y="-242.5" font-family="Helvetica,sans-Serif" font-size="10.00"> &#160;&#160;&#160;&#160;&#160;&#160;&#160;</text>
<text text-anchor="start" x="34" y="-242.5" font-family="Helvetica,sans-Serif" font-weight="bold" font-size="10.00">Purpose:</text>
<text text-anchor="start" x="85" y="-242.5" font-family="Helvetica,sans-Serif" font-size="10.00"> run metadata</text>
<text text-anchor="start" x="9" y="-232.5" font-family="Helvetica,sans-Serif" font-size="10.00"> &#160;&#160;&#160;&#160;&#160;&#160;&#160;• run_ts_utc, pipeline_git_sha</text>
<text text-anchor="start" x="9" y="-222.5" font-family="Helvetica,sans-Serif" font-size="10.00"> &#160;&#160;&#160;&#160;&#160;&#160;&#160;• toolset_signature, calibration_id &#160;&#160;&#160;&#160;&#160;</text>
</g>
<!-- dim_case -->
<g id="node2" class="node">
<title>dim_case</title>
<polygon fill="#d9e1f2" stroke="transparent" points="13,-131.5 13,-160.5 213,-160.5 213,-131.5 13,-131.5"/>
<polygon fill="none" stroke="black" points="13,-131.5 13,-160.5 213,-160.5 213,-131.5 13,-131.5"/>
<text text-anchor="start" x="86.5" y="-144.5" font-family="Helvetica,sans-Serif" font-weight="bold" font-size="10.00">dim_case</text>
<polygon fill="none" stroke="black" points="13,-73.5 13,-131.5 213,-131.5 213,-73.5 13,-73.5"/>
<text text-anchor="start" x="22" y="-115.5" font-family="Helvetica,sans-Serif" font-weight="bold" font-size="10.00">PK:</text>
<text text-anchor="start" x="41" y="-115.5" font-family="Helvetica,sans-Serif" font-size="10.00"> (benchmark_id, case_id)</text>
<text text-anchor="start" x="22" y="-105.5" font-family="Helvetica,sans-Serif" font-size="10.00"> &#160;&#160;&#160;&#160;&#160;&#160;&#160;</text>
<text text-anchor="start" x="47" y="-105.5" font-family="Helvetica,sans-Serif" font-weight="bold" font-size="10.00">Purpose:</text>
<text text-anchor="start" x="98" y="-105.5" font-family="Helvetica,sans-Serif" font-size="10.00"> static case metadata</text>
<text text-anchor="start" x="22" y="-95.5" font-family="Helvetica,sans-Serif" font-size="10.00"> &#160;&#160;&#160;&#160;&#160;&#160;&#160;• owasp_id (A01–A10), track</text>
<text text-anchor="start" x="29.5" y="-85.5" font-family="Helvetica,sans-Serif" font-size="10.00"> &#160;&#160;&#160;&#160;&#160;&#160;&#160;• gt_total, language, tags &#160;&#160;&#160;&#160;&#160;</text>
</g>
<!-- dim_suite_run&#45;&gt;dim_case -->
<!-- fact_eval_case_k -->
<g id="node3" class="node">
<title>fact_eval_case_k</title>
<polygon fill="#fff2cc" stroke="transparent" points="338.5,-200.5 338.5,-229.5 547.5,-229.5 547.5,-200.5 338.5,-200.5"/>
<polygon fill="none" stroke="black" points="338.5,-200.5 338.5,-229.5 547.5,-229.5 547.5,-200.5 338.5,-200.5"/>
<text text-anchor="start" x="396" y="-213.5" font-family="Helvetica,sans-Serif" font-weight="bold" font-size="10.00">fact_eval_case_k</text>
<polygon fill="none" stroke="black" points="338.5,-142.5 338.5,-200.5 547.5,-200.5 547.5,-142.5 338.5,-142.5"/>
<text text-anchor="start" x="347.5" y="-184.5" font-family="Helvetica,sans-Serif" font-weight="bold" font-size="10.00">PK:</text>
<text text-anchor="start" x="366.5" y="-184.5" font-family="Helvetica,sans-Serif" font-size="10.00"> (suite_run_id, case_id, strategy, k)</text>
<text text-anchor="start" x="347.5" y="-174.5" font-family="Helvetica,sans-Serif" font-size="10.00"> &#160;&#160;&#160;&#160;&#160;&#160;&#160;</text>
<text text-anchor="start" x="372.5" y="-174.5" font-family="Helvetica,sans-Serif" font-weight="bold" font-size="10.00">Purpose:</text>
<text text-anchor="start" x="423.5" y="-174.5" font-family="Helvetica,sans-Serif" font-size="10.00"> case&#45;level A/B metrics</text>
<text text-anchor="start" x="347.5" y="-164.5" font-family="Helvetica,sans-Serif" font-size="10.00"> &#160;&#160;&#160;&#160;&#160;&#160;&#160;• precision_at_k, coverage_at_k</text>
<text text-anchor="start" x="351.5" y="-154.5" font-family="Helvetica,sans-Serif" font-size="10.00"> &#160;&#160;&#160;&#160;&#160;&#160;&#160;• paired deltas by case (A/B) &#160;&#160;&#160;&#160;&#160;</text>
</g>
<!-- dim_suite_run&#45;&gt;fact_eval_case_k -->
<g id="edge4" class="edge">
<title>dim_suite_run:e&#45;&gt;fact_eval_case_k:w</title>
<path fill="none" stroke="#444444" stroke-width="1.1" d="M226,-220.5C226,-220.5 329.5,-220.5 329.5,-220.5"/>
<polygon fill="#444444" stroke="#444444" stroke-width="1.1" points="329.5,-223.3 337.5,-220.5 329.5,-217.7 329.5,-223.3"/>
</g>
<!-- fact_eval_suite_k -->
<g id="node4" class="node">
<title>fact_eval_suite_k</title>
<polygon fill="#fff2cc" stroke="transparent" points="312.5,-464.5 312.5,-493.5 573.5,-493.5 573.5,-464.5 312.5,-464.5"/>
<polygon fill="none" stroke="black" points="312.5,-464.5 312.5,-493.5 573.5,-493.5 573.5,-464.5 312.5,-464.5"/>
<text text-anchor="start" x="394.5" y="-477.5" font-family="Helvetica,sans-Serif" font-weight="bold" font-size="10.00">fact_eval_suite_k</text>
<polygon fill="none" stroke="black" points="312.5,-416.5 312.5,-464.5 573.5,-464.5 573.5,-416.5 312.5,-416.5"/>
<text text-anchor="start" x="321.5" y="-448.5" font-family="Helvetica,sans-Serif" font-weight="bold" font-size="10.00">PK:</text>
<text text-anchor="start" x="340.5" y="-448.5" font-family="Helvetica,sans-Serif" font-size="10.00"> (suite_run_id, strategy, k, agg_type)</text>
<text text-anchor="start" x="321.5" y="-438.5" font-family="Helvetica,sans-Serif" font-size="10.00"> &#160;&#160;&#160;&#160;&#160;&#160;&#160;</text>
<text text-anchor="start" x="346.5" y="-438.5" font-family="Helvetica,sans-Serif" font-weight="bold" font-size="10.00">Purpose:</text>
<text text-anchor="start" x="397.5" y="-438.5" font-family="Helvetica,sans-Serif" font-size="10.00"> headline KPIs for dashboards</text>
<text text-anchor="start" x="321.5" y="-428.5" font-family="Helvetica,sans-Serif" font-size="10.00"> &#160;&#160;&#160;&#160;&#160;&#160;&#160;• macro/micro precision@k, coverage@k &#160;&#160;&#160;&#160;&#160;</text>
</g>
<!-- dim_suite_run&#45;&gt;fact_eval_suite_k -->
<g id="edge6" class="edge">
<title>dim_suite_run:e&#45;&gt;fact_eval_suite_k:w</title>
<path fill="none" stroke="#444444" stroke-width="1.1" d="M226,-292C226,-292 320,-292 320,-292 320,-292 320,-447.5 320,-447.5"/>
<polygon fill="#444444" stroke="#444444" stroke-width="1.1" points="317.2,-447.5 320,-455.5 322.8,-447.5 317.2,-447.5"/>
</g>
<!-- fact_tool_value -->
<g id="node5" class="node">
<title>fact_tool_value</title>
<polygon fill="#fff2cc" stroke="transparent" points="332.5,-337.5 332.5,-366.5 553.5,-366.5 553.5,-337.5 332.5,-337.5"/>
<polygon fill="none" stroke="black" points="332.5,-337.5 332.5,-366.5 553.5,-366.5 553.5,-337.5 332.5,-337.5"/>
<text text-anchor="start" x="400.5" y="-350.5" font-family="Helvetica,sans-Serif" font-weight="bold" font-size="10.00">fact_tool_value</text>
<polygon fill="none" stroke="black" points="332.5,-279.5 332.5,-337.5 553.5,-337.5 553.5,-279.5 332.5,-279.5"/>
<text text-anchor="start" x="341.5" y="-321.5" font-family="Helvetica,sans-Serif" font-weight="bold" font-size="10.00">PK:</text>
<text text-anchor="start" x="360.5" y="-321.5" font-family="Helvetica,sans-Serif" font-size="10.00"> (suite_run_id, tool, metric_name)</text>
<text text-anchor="start" x="341.5" y="-311.5" font-family="Helvetica,sans-Serif" font-size="10.00"> &#160;&#160;&#160;&#160;&#160;&#160;&#160;</text>
<text text-anchor="start" x="366.5" y="-311.5" font-family="Helvetica,sans-Serif" font-weight="bold" font-size="10.00">Purpose:</text>
<text text-anchor="start" x="417.5" y="-311.5" font-family="Helvetica,sans-Serif" font-size="10.00"> tool contribution</text>
<text text-anchor="start" x="341.5" y="-301.5" font-family="Helvetica,sans-Serif" font-size="10.00"> &#160;&#160;&#160;&#160;&#160;&#160;&#160;• metric_name ∈ {utility, marginal}</text>
<text text-anchor="start" x="385.5" y="-291.5" font-family="Helvetica,sans-Serif" font-size="10.00"> &#160;&#160;&#160;&#160;&#160;&#160;&#160;• metric_value &#160;&#160;&#160;&#160;&#160;</text>
</g>
<!-- dim_suite_run&#45;&gt;fact_tool_value -->
<g id="edge7" class="edge">
<title>dim_suite_run:e&#45;&gt;fact_tool_value:w</title>
<path fill="none" stroke="#444444" stroke-width="1.1" d="M226,-286C226,-286 323.5,-286 323.5,-286"/>
<polygon fill="#444444" stroke="#444444" stroke-width="1.1" points="323.5,-288.8 331.5,-286 323.5,-283.2 323.5,-288.8"/>
</g>
<!-- dim_tool_run -->
<g id="node6" class="node">
<title>dim_tool_run</title>
<polygon fill="#d9e1f2" stroke="transparent" points="326.5,-63.5 326.5,-92.5 558.5,-92.5 558.5,-63.5 326.5,-63.5"/>
<polygon fill="none" stroke="black" points="326.5,-63.5 326.5,-92.5 558.5,-92.5 558.5,-63.5 326.5,-63.5"/>
<text text-anchor="start" x="406" y="-76.5" font-family="Helvetica,sans-Serif" font-weight="bold" font-size="10.00">dim_tool_run</text>
<polygon fill="none" stroke="black" points="326.5,-5.5 326.5,-63.5 558.5,-63.5 558.5,-5.5 326.5,-5.5"/>
<text text-anchor="start" x="335.5" y="-47.5" font-family="Helvetica,sans-Serif" font-weight="bold" font-size="10.00">PK:</text>
<text text-anchor="start" x="354.5" y="-47.5" font-family="Helvetica,sans-Serif" font-size="10.00"> (suite_run_id, case_id, tool, run_id)</text>
<text text-anchor="start" x="335.5" y="-37.5" font-family="Helvetica,sans-Serif" font-size="10.00"> &#160;&#160;&#160;&#160;&#160;&#160;&#160;</text>
<text text-anchor="start" x="360.5" y="-37.5" font-family="Helvetica,sans-Serif" font-weight="bold" font-size="10.00">Purpose:</text>
<text text-anchor="start" x="411.5" y="-37.5" font-family="Helvetica,sans-Serif" font-size="10.00"> provenance &amp; performance</text>
<text text-anchor="start" x="335.5" y="-27.5" font-family="Helvetica,sans-Serif" font-size="10.00"> &#160;&#160;&#160;&#160;&#160;&#160;&#160;• tool_version, ruleset_hash</text>
<text text-anchor="start" x="335.5" y="-17.5" font-family="Helvetica,sans-Serif" font-size="10.00"> &#160;&#160;&#160;&#160;&#160;&#160;&#160;• runtime_seconds, findings counts &#160;&#160;&#160;&#160;&#160;</text>
</g>
<!-- dim_suite_run&#45;&gt;dim_tool_run -->
<g id="edge5" class="edge">
<title>dim_suite_run:e&#45;&gt;dim_tool_run:w</title>
<path fill="none" stroke="#444444" stroke-width="1.1" d="M220,-254.5C220,-254.5 220,-86.67 220,-86.67 220,-86.67 318.5,-86.67 318.5,-86.67"/>
<polygon fill="#444444" stroke="#444444" stroke-width="1.1" points="318.5,-89.47 326.5,-86.67 318.5,-83.87 318.5,-89.47"/>
</g>
<!-- dim_case&#45;&gt;fact_eval_case_k -->
<g id="edge8" class="edge">
<title>dim_case:e&#45;&gt;fact_eval_case_k:w</title>
<path fill="none" stroke="#444444" stroke-width="1.1" d="M213,-152C213,-152 329.5,-152 329.5,-152"/>
<polygon fill="#444444" stroke="#444444" stroke-width="1.1" points="329.5,-154.8 337.5,-152 329.5,-149.2 329.5,-154.8"/>
</g>
<!-- dim_case&#45;&gt;dim_tool_run -->
<g id="edge9" class="edge">
<title>dim_case:e&#45;&gt;dim_tool_run:w</title>
<path fill="none" stroke="#444444" stroke-width="1.1" d="M213,-80.33C213,-80.33 318.5,-80.33 318.5,-80.33"/>
<polygon fill="#444444" stroke="#444444" stroke-width="1.1" points="318.5,-83.13 326.5,-80.33 318.5,-77.53 318.5,-83.13"/>
</g>
<!-- fact_eval_case_k&#45;&gt;dim_tool_run -->
<!-- fact_eval_suite_k&#45;&gt;fact_tool_value -->
<!-- legend -->
<g id="node7" class="node">
<title>legend</title>
<polygon fill="none" stroke="black" points="659.5,-73.5 659.5,-98.5 1016.5,-98.5 1016.5,-73.5 659.5,-73.5"/>
<text text-anchor="start" x="817" y="-84.5" font-family="Helvetica,sans-Serif" font-weight="bold" font-size="10.00">Legend</text>
<polygon fill="#d9e1f2" stroke="transparent" points="659.5,-48.5 659.5,-73.5 726.5,-73.5 726.5,-48.5 659.5,-48.5"/>
<polygon fill="none" stroke="black" points="659.5,-48.5 659.5,-73.5 726.5,-73.5 726.5,-48.5 659.5,-48.5"/>
<text text-anchor="start" x="666.5" y="-58.5" font-family="Helvetica,sans-Serif" font-size="10.00">Dimension</text>
<polygon fill="none" stroke="black" points="726.5,-48.5 726.5,-73.5 1016.5,-73.5 1016.5,-48.5 726.5,-48.5"/>
<text text-anchor="start" x="733.5" y="-58.5" font-family="Helvetica,sans-Serif" font-size="10.00">Descriptive attributes used for slicing &amp; joins</text>
<polygon fill="#fff2cc" stroke="transparent" points="659.5,-23.5 659.5,-48.5 726.5,-48.5 726.5,-23.5 659.5,-23.5"/>
<polygon fill="none" stroke="black" points="659.5,-23.5 659.5,-48.5 726.5,-48.5 726.5,-23.5 659.5,-23.5"/>
<text text-anchor="start" x="683" y="-33.5" font-family="Helvetica,sans-Serif" font-size="10.00">Fact</text>
<polygon fill="none" stroke="black" points="726.5,-23.5 726.5,-48.5 1016.5,-48.5 1016.5,-23.5 726.5,-23.5"/>
<text text-anchor="start" x="733.5" y="-33.5" font-family="Helvetica,sans-Serif" font-size="10.00">Measurable outcomes used for metrics, A/B, dashboards</text>
<polygon fill="none" stroke="black" points="659.5,0.5 659.5,-23.5 1016.5,-23.5 1016.5,0.5 659.5,0.5"/>
<text text-anchor="start" x="666.5" y="-9.3" font-family="Helvetica,sans-Serif" font-size="9.00">Join keys are listed inside each table.</text>
</g>
</g>
</svg>
